<svg id="Layer_1" data-name="Layer 1" xmlns="http://www.w3.org/2000/svg" viewBox="0 0 1274 257"><defs><style>.cls-1{fill:#001e4c;}.cls-2{fill:#1d77ff;}</style></defs><title>Cybeats_Horizontal_Logo_Dark-ed</title><path class="cls-1" d="M273.62,124.05a36.2,36.2,0,0,0,4.22-4.62Zm-73.11-23.42,16.33,16.86h0L226,126.9a37.61,37.61,0,0,0,46.73-2l-23.16-24.26Z"/><path class="cls-2" d="M396.7,40.82l-91.86,100a44.34,44.34,0,0,1-32.63,14.36H272a44.36,44.36,0,0,1-31.76-13.5L226,126.9a37.61,37.61,0,0,0,46.73-2l.08.09.85-.93a36.2,36.2,0,0,0,4.22-4.62l71.51-78.13Z"/><path class="cls-1" d="M291.43,207.79H253.27v-15a25.46,25.46,0,0,1,25.46-25.46h12.7Z"/><path class="cls-1" d="M154.72,183l-92.79.9c-9.19.09-13.37-4.84-13.46-14.48l-.31-33c-.11-10,4-14.83,13.16-14.92l92.79-.91-.24-23.15-98.16,1c-22.53.23-32.87,12.06-32.64,35.69l.36,38.11c.25,23.63,10.83,35.27,33.34,35l98.16-1Z"/><path class="cls-1" d="M519.13,171.26c-.16-16.88-10.34-20.15-17-20.75,6.49-.85,15.19-3.83,15-21.84l-.07-6.91c-.16-15.92-6.9-24.53-25.12-24.35L376.8,98.54l1.06,108.83,116.87-1.14c18.24-.19,24.65-8.92,24.51-24.84ZM401.89,119.34l81.2-.79c6.66-.07,9.22,3.12,9.29,9.4v4.34c.07,7.08-4,9.36-10.22,9.43l-80.08.77Zm83.43,65.92-82.78.8-.25-24.76,81.37-.78c6.18-.07,10.64,2.46,10.71,9v5.79c.07,6.43-2.44,9.83-9.1,9.9"/><path class="cls-1" d="M708.27,184.58l-105.78,1h-9.12V161H603.9l100.55-1-.19-18.64-109.72,1V118.93s2.44,0,9-.06l103.86-1-.21-21.06L594.28,97.92c-18.23.16-24.83,8.91-24.67,24.83l.09,7.24c.17,18-1.34,25.75-1.17,42.62l.09,9.8c.15,15.92,6.88,24.53,25.14,24.36l114.81-1.12Z"/><path class="cls-1" d="M856.27,97.44,803.79,98l-54,109.37,28.54-.28,14.48-29.88,75.18-.73L883.35,206l29.81-.29Zm-54.9,61.63,19.76-40.87,17.27-.2,20.86,40.48Z"/><polygon class="cls-1" points="1076.26 120.45 1076.03 97.57 939.32 97.57 939.55 120.4 995.36 121.25 996.2 207.2 1020.95 206.98 1020.1 121.28 1076.26 120.45"/><path class="cls-1" d="M1247.75,166.46c-.14-15.91-6.89-24.69-25.3-24.49l-77.22.75c-6.66.07-9.22-3.46-9.29-9.58V128.8c-.07-6.26,2.44-9.5,9.1-9.57l99.59-1-.2-21.06-108.65,1c-18.22.19-24.8,8.92-24.65,24.84l.14,13.83c.16,15.92,6.91,24.7,25.14,24.51l77.4-.75c6.48-.07,9.07,3.61,9.12,9.56v5.16c.07,6.41-2.58,9.81-9.1,9.88l-102.12,1,.19,21.06,111.19-1.08c18.37-.18,25-8.93,24.81-24.85"/></svg>